<svg width="250" height="77" viewBox="0 0 250 77" fill="none" xmlns="http://www.w3.org/2000/svg">
<path d="M71.7369 26.2705C70.0803 26.2705 69.2269 27.0757 68.4739 28.3339L62.1988 38.5502L56.4257 29.0385C55.3213 27.277 54.3675 26.2705 52.51 26.2705C50.4518 26.2705 49.1968 27.5287 49.1968 29.5921V48.1627C49.1968 49.6725 50.251 50.7293 51.757 50.7293C53.263 50.7293 54.3675 49.6725 54.3675 48.1627V35.2287L59.2871 43.13C59.9899 44.2372 60.7932 44.7404 61.9478 44.7404C63.1024 44.7404 63.9056 44.2875 64.6084 43.13L69.5783 35.1784V48.213C69.5783 49.7228 70.6325 50.7797 72.1385 50.7797C73.6446 50.7797 74.749 49.7228 74.749 48.213V29.2901C74.6988 27.428 73.5442 26.2705 71.7369 26.2705Z" fill="white"/>
<path d="M93.725 32.3601C92.5201 32.3601 91.6165 33.0647 91.3655 34.1719C90.0603 32.7627 88.2531 32.0078 86.0944 32.0078C81.225 32.0078 77.5603 36.034 77.5603 41.3686C77.5603 46.7032 81.225 50.7797 86.0944 50.7797C88.2029 50.7797 90.0101 50.0248 91.3153 48.515C91.5161 49.6222 92.4197 50.3771 93.6748 50.3771C95.0804 50.3771 96.0342 49.4209 96.0342 48.0117V34.7255C96.0844 33.3163 95.0804 32.3601 93.725 32.3601ZM91.3153 41.3183C91.3153 44.1366 89.4077 46.3006 86.8474 46.3006C84.237 46.3006 82.2792 44.1869 82.2792 41.3183C82.2792 38.5 84.237 36.3862 86.8474 36.3862C89.4077 36.3862 91.3153 38.5 91.3153 41.3183Z" fill="white"/>
<path d="M116.115 32.3096C115.813 32.0076 115.311 31.605 114.508 31.605C113.855 31.605 113.303 31.8566 112.902 32.2592C112.45 32.7122 112.249 33.3161 112.249 34.0207V38.6004H104.418V34.0207C104.418 33.3161 104.217 32.7122 103.765 32.2592C103.364 31.8063 102.811 31.605 102.108 31.605C101.456 31.605 100.904 31.8566 100.502 32.3096C100.1 32.7625 99.8997 33.3161 99.8997 34.0207V48.3135C99.8997 48.9677 100.1 49.5716 100.502 50.0246C100.904 50.4775 101.456 50.7292 102.108 50.7292C102.761 50.7292 103.313 50.4775 103.765 50.0246C104.167 49.5716 104.418 48.9677 104.418 48.3135V43.0795H112.249V48.3135C112.249 48.9677 112.45 49.5716 112.902 50.0246C113.303 50.4775 113.906 50.7292 114.508 50.7292C115.362 50.7292 115.864 50.3265 116.115 50.0246C116.516 49.5716 116.717 49.018 116.717 48.3135V34.0207C116.717 33.3161 116.516 32.7625 116.115 32.3096Z" fill="white"/>
<path d="M137.149 32.3598C136.697 31.9069 136.145 31.7056 135.442 31.7056C134.789 31.7056 134.187 31.9069 133.785 32.3598C133.333 32.8128 133.082 33.3663 133.082 34.0709V42.9788C133.082 43.5827 132.932 44.1363 132.58 44.5892C132.229 45.0925 131.777 45.4951 131.175 45.7971C130.572 46.099 129.869 46.25 129.116 46.25C128.263 46.25 127.56 46.099 126.908 45.7971C126.305 45.4951 125.803 45.0422 125.452 44.3879C125.1 43.7337 124.9 42.8781 124.9 41.8213V34.0709C124.9 33.4167 124.649 32.8128 124.197 32.3598C123.745 31.9069 123.193 31.7056 122.49 31.7056C121.837 31.7056 121.235 31.9572 120.783 32.3598C120.331 32.8128 120.08 33.3663 120.08 34.0709V41.8716C120.08 43.7337 120.432 45.3441 121.185 46.6526C121.938 47.9611 122.942 49.018 124.197 49.6722C125.452 50.3768 126.908 50.6788 128.464 50.6788C130.02 50.6788 131.375 50.3265 132.58 49.6722C132.831 49.5213 133.082 49.3703 133.283 49.2193C133.384 49.4709 133.534 49.6722 133.735 49.8232C134.187 50.2762 134.739 50.5278 135.442 50.5278C136.145 50.5278 136.697 50.2762 137.149 49.8232C137.6 49.3703 137.801 48.8167 137.801 48.1624V34.0709C137.801 33.3663 137.55 32.8128 137.149 32.3598Z" fill="white"/>
<path d="M158.032 31.605C156.576 31.605 155.924 32.4102 155.371 33.3161L151.054 40.6135L147.038 33.8697C146.335 32.7122 145.532 31.6553 143.926 31.6553C142.219 31.6553 141.165 32.7625 141.165 34.4736V48.5148C141.165 49.773 142.118 50.7795 143.323 50.7795C144.578 50.7795 145.532 49.8233 145.532 48.5148V39.7579L148.594 44.8409C149.146 45.7971 149.849 46.1998 150.803 46.1998C151.757 46.1998 152.41 45.7971 153.012 44.8409L156.074 39.7579V48.5148C156.074 49.773 157.028 50.7795 158.233 50.7795C159.488 50.7795 160.442 49.8233 160.442 48.5148V34.1716C160.442 32.6618 159.488 31.605 158.032 31.605Z" fill="#4C4C4C"/>
<path d="M181.225 39.8086C181.225 35.9334 178.163 31.8569 172.49 31.8569C167.169 31.8569 163.303 35.8328 163.303 41.268C163.303 46.653 167.42 50.7295 172.841 50.7295C176.807 50.7295 179.769 49.1694 179.769 47.0556C179.769 45.8981 178.966 45.1432 177.811 45.1432C177.259 45.1432 176.807 45.3445 176.205 45.6465C175.452 45.9988 174.498 46.4517 172.992 46.4517C170.582 46.4517 168.775 44.9419 168.273 42.6269H178.414C180.171 42.5765 181.225 41.57 181.225 39.8086ZM172.339 35.9837C174.398 35.9837 175.853 37.2419 176.305 39.406H168.323C168.926 37.2419 170.432 35.9837 172.339 35.9837Z" fill="#4C4C4C"/>
<path d="M200.201 32.3096C199.9 32.0076 199.398 31.605 198.544 31.605C197.892 31.605 197.339 31.8566 196.888 32.2592C196.436 32.7122 196.185 33.3161 196.185 34.0207V38.6004H188.102V34.0207C188.102 33.3161 187.902 32.7122 187.45 32.2592C186.998 31.8063 186.446 31.605 185.793 31.605C185.141 31.605 184.588 31.8566 184.136 32.3096C183.735 32.7625 183.484 33.3161 183.484 34.0207V48.3135C183.484 48.9677 183.685 49.5716 184.086 50.0246C184.488 50.4775 185.09 50.7292 185.743 50.7292C186.396 50.7292 186.998 50.4775 187.45 50.0246C187.851 49.5716 188.102 48.9677 188.102 48.3135V43.0795H196.185V48.3135C196.185 48.9677 196.436 49.5716 196.837 50.0246C197.289 50.4775 197.841 50.7292 198.494 50.7292C199.347 50.7292 199.9 50.3265 200.151 50.0246C200.552 49.5716 200.753 49.018 200.753 48.3135V34.0207C200.803 33.3161 200.602 32.7625 200.201 32.3096Z" fill="#4C4C4C"/>
</svg>