<svg width="332" height="150" viewBox="0 0 332 150" fill="none" xmlns="http://www.w3.org/2000/svg">
<path fill-rule="evenodd" clip-rule="evenodd" d="M243.287 328.902C205.322 338.122 180.526 286.864 145.286 269.994C115.863 255.909 79.4724 260.436 55.061 238.796C26.7159 213.67 -1.10217 179.867 0.946448 142.043C2.98679 104.373 38.1504 78.5711 65.1652 52.2427C88.3647 29.6326 113.46 7.86094 145.212 1.44382C175.334 -4.64397 203.398 12.3977 233.577 18.2066C271.015 25.4131 313.032 16.0867 343.098 39.5345C377.463 66.3353 413.653 108.822 404.365 151.402C394.817 195.175 331.186 198.982 301.08 232.158C275.203 260.672 280.703 319.815 243.287 328.902Z" fill="#9EDC16"/>
</svg>
