<svg width="225" height="95" viewBox="0 0 225 95" fill="none" xmlns="http://www.w3.org/2000/svg">
<path fill-rule="evenodd" clip-rule="evenodd" d="M214.733 49.9171C202.694 69.4797 182.737 83.1691 160.863 90.1178C138.167 97.3275 114.058 95.8283 91.2414 89.1461C66.5973 81.9287 42.3321 71.1225 26.6371 50.808C10.057 29.348 -5.32046 0.84224 3.03123 -25.027C11.3324 -50.7396 43.5404 -57.9466 66.3999 -72.3567C81.4237 -81.8274 96.4179 -89.322 113.37 -94.5819C131.256 -100.132 149.15 -107.803 167.393 -103.693C187.363 -99.1936 206.934 -88.5499 217.618 -71.0952C228.229 -53.7603 224.098 -32.1973 223.613 -11.8478C223.105 9.46095 225.916 31.745 214.733 49.9171Z" fill="#9EDC16"/>
</svg>
