<svg width="1920" height="1081" viewBox="0 0 1920 1081" fill="none" xmlns="http://www.w3.org/2000/svg">
<g clip-path="url(#clip0_4_1679)">
<path fill-rule="evenodd" clip-rule="evenodd" d="M1965.2 -284.889C2048.51 -280.49 2067.84 -160.43 2129.59 -104.325C2181.16 -57.48 2258.38 -44.4447 2295.06 14.784C2337.66 83.5569 2373.86 169.756 2346.49 245.882C2319.23 321.699 2231.48 352.94 2160.08 390.251C2098.77 422.292 2034.09 451.457 1965.2 445.129C1899.84 439.127 1852.87 387.067 1794.69 356.691C1722.51 319.008 1630.84 312.343 1583.69 245.95C1529.81 170.064 1481.8 60.9673 1526.9 -20.4522C1573.25 -104.154 1705.76 -72.9541 1787.68 -122.379C1858.09 -164.859 1883.08 -289.225 1965.2 -284.889Z" fill="#9EDC16"/>
<path fill-rule="evenodd" clip-rule="evenodd" d="M235.074 1424.05C153.997 1443.74 101.041 1334.27 25.7815 1298.24C-37.0553 1268.16 -114.771 1277.83 -166.905 1231.62C-227.439 1177.96 -286.848 1105.77 -282.473 1024.99C-278.116 944.54 -203.019 889.437 -145.326 833.209C-95.7805 784.923 -42.1874 738.427 25.6232 724.722C89.9535 711.721 149.888 748.115 214.337 760.521C294.292 775.911 384.024 755.994 448.233 806.069C521.624 863.306 598.913 954.042 579.077 1044.98C558.685 1138.46 422.794 1146.59 358.498 1217.44C303.236 1278.34 314.982 1404.64 235.074 1424.05Z" fill="#9EDC16"/>
<path fill-rule="evenodd" clip-rule="evenodd" d="M0.32962 -375.834C63.7183 -384.646 128.512 -365.947 182.213 -331.134C237.932 -295.013 277.431 -240.369 303.499 -179.298C331.654 -113.336 351.424 -41.8121 335.565 28.1326C318.813 102.021 284.783 185.84 214.371 213.81C144.385 241.611 71.8165 184.977 0.32962 161.301C-46.6533 145.741 -89.3357 126.733 -130.683 99.5313C-174.309 70.8311 -222.51 45.8833 -246.002 -0.753998C-271.719 -51.8083 -283.519 -112.921 -264.929 -166.98C-246.467 -220.668 -192.791 -250.084 -148.185 -285.205C-101.477 -321.982 -58.5535 -367.649 0.32962 -375.834Z" fill="#9EDC16"/>
</g>
<defs>
<clipPath id="clip0_4_1679">
<rect width="2705" height="1914.28" fill="white" transform="translate(-349 -378)"/>
</clipPath>
</defs>
</svg>
